<?xml version="1.0" encoding="UTF-8" standalone="no"?>
<svg
   xmlns:dc="http://purl.org/dc/elements/1.1/"
   xmlns:cc="http://creativecommons.org/ns#"
   xmlns:rdf="http://www.w3.org/1999/02/22-rdf-syntax-ns#"
   xmlns:svg="http://www.w3.org/2000/svg"
   xmlns="http://www.w3.org/2000/svg"
   xmlns:sodipodi="http://sodipodi.sourceforge.net/DTD/sodipodi-0.dtd"
   xmlns:inkscape="http://www.inkscape.org/namespaces/inkscape"
   version="1.1"
   id="Ebene_1"
   x="0px"
   y="0px"
   width="82.6446280992px"
   height="100px"
   viewBox="0 0 100 121.17"
   enable-background="new 0 0 100 121.17"
   xml:space="preserve"
   inkscape:version="0.48.2 r9819"
   sodipodi:docname="noun_project_2456.svg"><metadata
   id="metadata9"><rdf:RDF><cc:Work
       rdf:about=""><dc:format>image/svg+xml</dc:format><dc:type
         rdf:resource="http://purl.org/dc/dcmitype/StillImage" /></cc:Work></rdf:RDF></metadata><defs
   id="defs7"><clipPath
     clipPathUnits="userSpaceOnUse"
     id="clipPath3871"><path
       sodipodi:type="arc"
       style="fill:#d04d3e;fill-opacity:1;fill-rule:nonzero;stroke:#ffffff;stroke-width:0.60452563;stroke-linecap:round;stroke-linejoin:round;stroke-miterlimit:1;stroke-opacity:1;stroke-dasharray:none"
       id="path3873"
       sodipodi:cx="38.135593"
       sodipodi:cy="37.711864"
       sodipodi:rx="37.711864"
       sodipodi:ry="37.711864"
       d="m 75.847458,37.711864 a 37.711864,37.711864 0 1 1 -75.42372906,0 37.711864,37.711864 0 1 1 75.42372906,0 z"
       transform="matrix(1.5032862,0,0,1.5032862,-37.813693,-21.575087)" /></clipPath></defs><sodipodi:namedview
   pagecolor="#ffffff"
   bordercolor="#666666"
   borderopacity="1"
   objecttolerance="10"
   gridtolerance="10"
   guidetolerance="10"
   inkscape:pageopacity="0"
   inkscape:pageshadow="2"
   inkscape:window-width="1440"
   inkscape:window-height="786"
   id="namedview5"
   showgrid="false"
   inkscape:zoom="2.36"
   inkscape:cx="-34.101414"
   inkscape:cy="50"
   inkscape:window-x="0"
   inkscape:window-y="0"
   inkscape:window-maximized="1"
   inkscape:current-layer="Ebene_1" />
<path
   sodipodi:type="arc"
   style="fill:#ffffff;fill-opacity:1;fill-rule:nonzero;stroke:#ffffff;stroke-width:0.75000000000000000;stroke-linecap:round;stroke-linejoin:round;stroke-miterlimit:1;stroke-opacity:1;stroke-dasharray:none"
   id="path3875"
   sodipodi:cx="41.31356"
   sodipodi:cy="41.737289"
   sodipodi:rx="34.957626"
   sodipodi:ry="34.957626"
   d="m 76.271187,41.737289 a 34.957626,34.957626 0 1 1 -69.9152529,0 34.957626,34.957626 0 1 1 69.9152529,0 z"
   transform="matrix(1.2117,0,0,1.2117,-0.05964124,0)" /><g
   id="g3080"
   transform="matrix(0.80603414,0,0,0.80603414,34.270229,22.586191)"
   clip-path="url(#clipPath3871)"><g
     id="Layer_1">
</g><g
     id="Layer_2">
	<g
   id="g3066">
		<path
   id="path3068"
   d="m 3.068,26.744 16.824,4.573 16.759,-4.65 -3.504,-3.457 c 0,0 0.722,-11.52 -3.035,-16.807 C 26.983,2.004 21.925,0.669 19.988,0.305 L 19.794,0.299 C 17.876,0.655 12.782,1.984 9.64,6.403 5.88,11.69 6.604,23.21 6.604,23.21 L 3.068,26.744 z M 17.677,10.176 16.334,6.595 h 7.224 l -1.352,3.718 c 1.894,0.903 3.213,2.818 3.213,5.055 0,3.101 -2.515,5.615 -5.615,5.615 -3.102,0 -5.616,-2.514 -5.616,-5.615 0,-2.347 1.443,-4.353 3.489,-5.192 z"
   inkscape:connector-curvature="0" />
		<path
   id="path3070"
   d="M 19.9,34.038 9.093,31.101 c -0.011,0.206 -0.031,0.407 -0.031,0.615 0,6.01 4.872,10.881 10.88,10.881 6.01,0 10.881,-4.872 10.881,-10.881 0,-0.235 -0.02,-0.466 -0.035,-0.699 L 19.9,34.038 z"
   inkscape:connector-curvature="0" />
	</g>
	<path
   id="path3072"
   d="m 35.953,45.14 c -0.018,-0.008 -0.265,-0.112 -1.445,-0.219 -0.839,-0.076 -5.351,-0.09 -7.102,-0.094 L 5.523,44.835 c -8.691,0 -15.118,7.088 -15.118,15.93 v 33.389 c 0,7.326 9.68,7.326 9.68,0 V 61.775 H 3.128 L 3.162,100 H 35.989 L 36,61.775 h 3.02 v 32.379 c 0,7.382 9.627,7.382 9.605,0 V 60.991 c 0,-7.285 -4.836,-14.414 -12.672,-15.851 z M 19.91,92.894 c -1.811,0 -3.279,-1.468 -3.279,-3.28 0,-1.812 1.468,-3.28 3.279,-3.28 1.812,0 3.28,1.469 3.28,3.28 0,1.812 -1.467,3.28 -3.28,3.28 z m 0,-11.263 c -1.811,0 -3.279,-1.468 -3.279,-3.279 0,-1.812 1.468,-3.281 3.279,-3.281 1.812,0 3.28,1.469 3.28,3.281 0,1.811 -1.467,3.279 -3.28,3.279 z m 0,-11.152 c -1.811,0 -3.279,-1.469 -3.279,-3.281 0,-1.812 1.468,-3.28 3.279,-3.28 1.812,0 3.28,1.469 3.28,3.28 0,1.813 -1.467,3.281 -3.28,3.281 z m 0,-11.482 c -1.811,0 -3.279,-1.468 -3.279,-3.279 0,-1.812 1.468,-3.281 3.279,-3.281 1.812,0 3.28,1.469 3.28,3.281 0,1.811 -1.467,3.279 -3.28,3.279 z"
   inkscape:connector-curvature="0" />
</g></g><path
   d="M15.133,15.442c-19.256,19.256-19.256,50.476,0,69.732L50,120.041l34.866-34.867c19.257-19.256,19.257-50.476,0-69.732  C65.61-3.814,34.39-3.814,15.133,15.442z M71.718,72.027c-11.994,11.994-31.442,11.995-43.437,0  c-11.995-11.995-11.995-31.442,0-43.437c11.995-11.995,31.443-11.995,43.437,0C83.712,40.584,83.712,60.032,71.718,72.027z"
   id="path3"
   style="fill:#d04d3e;fill-opacity:1" />
</svg>